#!OML:ASF E:/inclinewalkrobotboard/Project1/Captureday1/Session1/subject1.ASF
:FULLY-SPECIFIED
:DEGREES
51
root 0 0 0 -1.394554053643521 21.44256190321146 8.68890679532357
lowerback -4.1015172659298305 -6.069734351340246 -6.420164171896102
upperback -8.429158452366282 -7.515746110065253 6.980763306519286
thorax -6.0926839575881715 -2.6148487284702364 11.001655138889316
lowerneck -5.557687243010417 -8.877149811926714 -7.668085213732743
upperneck 32.23741814734579 -11.462955938759086 1.878718173489183
head 12.133822109938276 -5.835261881100212 0.3687430041429768
rclavicle -3.755989719421234E-15 -2.489354950703728E-15
rhumerus -18.945607445837872 -26.81452813359482 -16.76847827875163
rradius 62.278798481532306
rwrist -12.115182678883087
rhand -26.611884993107257 32.35240604366671
rfingers 7.1250199999999655
rthumb -0.026151931612595547 1.5781716591278219
lclavicle -4.400439349635376E-16 -3.761344121842239E-15
lhumerus 26.130746288413 5.457155298320222 38.39000972329747
lradius 63.1571095978374
lwrist -9.436656801157792
lhand -13.77017117884767 7.329686136770807
lfingers 7.1250199999999735
lthumb 12.198860692928685 35.562061782658304
rfemur 143.52916031745679 -160.17409760242344 -124.83514145188431
rtibia 28.293718637188064
rfoot -15.233079079601476 -49.43779283435531
rtoes 4.218101220772393
lfemur -82.48995921819484 24.07523519750798 -57.59027206366916
ltibia 67.94149025051361
lfoot 12.691520287038085 32.49933535393737
ltoes 0.18148415292551512
52
root 0 0 0 -1.3934639539224563 21.43781762812483 8.656364429817915
lowerback -4.08154014240695 -6.067670715546642 -6.403018020208959
upperback -8.41902337483731 -7.513544988122447 6.980635152676953
thorax -6.091414817526144 -2.6163198784004598 10.991916381179557
lowerneck -5.570395571988237 -8.876791178125329 -7.6691874412521415
upperneck 32.23291189925786 -11.462889160809775 1.8792950935394956
head 12.135093413551239 -5.835105389141156 0.36914854162780175
rclavicle -3.751434631760418E-15 -2.474133357105527E-15
rhumerus -18.916580258033598 -26.854122492604127 -16.748522740599313
rradius 62.31784127741152
rwrist -12.164036801807455
rhand -26.61237201310269 32.35806215724234
rfingers 7.1250199999999655
rthumb -0.02710366353250393 1.5841704375036976
lclavicle -2.807152645428782E-16 -3.786704164991352E-15
lhumerus 25.029954455849108 4.934200042787131 39.566253351306564
lradius 63.32741586275367
lwrist -8.770328962229556
lhand -13.966272381980659 7.351378462691887
lfingers 7.125019999999972
lthumb 12.008436135156543 35.579548505391344
rfemur 142.62834434420984 -159.0133448083697 -123.89955392528094
rtibia 28.36091570231607
rfoot -14.760140974848822 -49.64008653617613
rtoes 4.3292671846981605
lfemur -82.37373021413298 24.06811816005198 -57.439089299504616
ltibia 68.05206484370137
lfoot 12.575790035531366 32.355798780841084
ltoes 0.16859854580238043
53
root 0 0 0 -1.393201161684562 21.434091023947186 8.633053988212284
lowerback -4.067104042127276 -6.066149854048241 -6.390110726475278
upperback -8.411773099446009 -7.511883637780086 6.980693969694316
thorax -6.090616549126551 -2.6173506863579075 10.984729374458658
lowerneck -5.579304850366095 -8.876433373102078 -7.669829307082876
upperneck 32.22977234228625 -11.462662858929953 1.8795709561624583
head 12.135984896241283 -5.834932795757941 0.369382497103375
rclavicle -3.747630478385595E-15 -2.461557065852414E-15
rhumerus -18.905820569352734 -26.882649899046342 -16.725329570536076
rradius 62.34668951843431
rwrist -12.195773435908372
rhand -26.613757517538797 32.3638137808815
rfingers 7.1250199999999655
rthumb -0.028806229923802107 1.5900577161134173
lclavicle -1.519932512945769E-16 -3.807990355221142E-15
lhumerus 24.21104090377549 4.518061414867967 40.4259066284839
lradius 63.463765839417405
lwrist -8.262913826320313
lhand -14.080428622269825 7.373807472000813
lfingers 7.12501999999997
lthumb 11.896933158914015 35.592397733249015
rfemur 141.8680383609405 -158.07905153844658 -123.13181462032334
rtibia 28.40901802768571
rfoot -14.448505714063902 -49.758167321761874
rtoes 4.418921235927105
lfemur -82.29319786398436 24.061432580857407 -57.3239837831864
ltibia 68.12948903243783
lfoot 12.512070965803392 32.247540649386195
ltoes 0.16085311475932862
54
root 0 0 0 -1.4062040679664207 21.42944854577092 8.617050400776135
lowerback -4.043478048462714 -6.064365398869793 -6.378905916205202
upperback -8.400842909560403 -7.509911895481949 6.979709326353019
thorax -6.091691912629668 -2.617753516531285 10.977352050233554
lowerneck -5.588712920351504 -8.874337328435882 -7.668897497981146
upperneck 32.21966023686375 -11.459327779587843 1.8792738438504157
head 12.134003426199342 -5.833468172194344 0.3693779720455842
rclavicle -3.757481399446962E-15 -2.452427003275014E-15
rhumerus -18.939079446214812 -26.910459556172373 -16.693532947096664
rradius 62.37006807119959
rwrist -12.214694620053905
rhand -26.616450379340503 32.37519926357519
rfingers 7.1250199999999655
rthumb -0.03177438728284443 1.6016450969435923
lclavicle -4.849892812304775E-17 -3.852578397910311E-15
lhumerus 23.25174254448884 4.041156477742518 41.50751213015167
lradius 63.61426478249574
lwrist -7.635136389705276
lhand -14.24593916847858 7.40289654482282
lfingers 7.125019999999967
lthumb 11.736155718842905 35.61500463031356
rfemur 140.7240648000734 -156.77525931523803 -121.99016767198667
rtibia 28.400756722309104
rfoot -14.209861912793716 -49.709971241210745
rtoes 4.4360348444122195
lfemur -82.22820940655461 24.039314505559148 -57.247405183189194
ltibia 68.1119813043509
lfoot 12.552246206613784 32.174713312637785
ltoes 0.16318577916151433
55
root 0 0 0 -1.4024120121075043 21.43543261365733 8.604925508280969
lowerback -4.041461286617274 -6.063973821150293 -6.372433505117348
upperback -8.399169331821737 -7.509420602537547 6.980691552642783
thorax -6.090242725381957 -2.618486135217198 10.974748310057262
lowerneck -5.5917433795152665 -8.875664783523362 -7.670233694296291
upperneck 32.22222385150238 -11.46123929947555 1.8784957938842637
head 12.13583955585974 -5.8344000601515456 0.3691794460470521
rclavicle -3.736658880262463E-15 -2.4356853976672637E-15
rhumerus -18.919118251087 -26.92196877953072 -16.688627935668777
rradius 62.385587871053424
rwrist -12.237192990543527
rhand -26.615693786240445 32.37568039983375
rfingers 7.1250199999999655
rthumb -0.031248460850246573 1.6024440627163017
lclavicle 8.692811730777816E-17 -3.841307870842109E-15
lhumerus 22.83975085185719 3.803913817751991 41.89986135996692
lradius 63.69555785716231
lwrist -7.379428818443025
lhand -14.269466407988636 7.417956655399241
lfingers 7.125019999999966
lthumb 11.712194295664302 35.618463882554764
rfemur 140.37283640308328 -156.3731858323773 -121.65678705185402
rtibia 28.44513187205135
rfoot -14.117808754892758 -49.745962461025556
rtoes 4.497084796565865
lfemur -82.1781853367647 24.038625232017424 -57.19370682356164
ltibia 68.18049641899694
lfoot 12.507462201768451 32.11369167238507
ltoes 0.13635199733848324
